<svg width="230" height="96" viewBox="0 0 230 96" fill="none" xmlns="http://www.w3.org/2000/svg">
<path d="M37.728 18.152L35.616 39.848L25.248 45.416L17.856 37.736L17.952 58.28L14.304 52.712L13.92 51.944L14.496 77L11.424 72.2L9.312 95.24L2.4 55.592L5.856 57.896L2.208 34.088L7.008 36.2L2.976 2.504H17.76V7.68799L26.976 3.848L37.728 18.152ZM26.4 36.968L25.248 8.84L17.76 11.912L17.856 36.008L24.48 39.464L26.4 36.968ZM65.6835 60.2C66.0035 61.8 64.2435 63.592 60.4035 65.576C57.2035 67.24 54.5795 68.2 52.5315 68.456L50.8035 68.168C44.3395 63.176 40.9155 59.976 40.5315 58.568C40.4035 55.56 40.6915 48.136 41.3955 36.296C45.8115 33.096 50.3875 30.664 55.1235 29L61.9395 33.704L62.7075 34.952C64.1155 36.296 64.9475 39.176 65.2035 43.592C65.3315 45.832 65.4915 51.368 65.6835 60.2ZM56.4675 62.504C56.4675 45.8 55.8595 35.912 54.6435 32.84L51.5715 34.664C50.4835 35.496 49.7795 36.36 49.4595 37.256L49.9395 62.504C50.3875 63.784 51.2515 64.712 52.5315 65.288C54.4515 64.712 55.7635 63.784 56.4675 62.504ZM85.6598 27.752H80.2838L79.4198 68.552C79.2918 68.808 79.2278 69.064 79.2278 69.32C79.2278 70.472 80.7638 72.36 83.8358 74.984L75.9638 72.104C72.8918 70.952 71.2598 69.576 71.0678 67.976L71.5478 27.368H63.4837C68.9878 24.296 74.4918 18.984 79.9958 11.432L79.8038 23.624H84.7958L85.6598 27.752ZM105.066 27.752H99.69L98.826 68.552C98.698 68.808 98.634 69.064 98.634 69.32C98.634 70.472 100.17 72.36 103.242 74.984L95.37 72.104C92.298 70.952 90.666 69.576 90.474 67.976L90.954 27.368H82.89C88.394 24.296 93.898 18.984 99.402 11.432L99.21 23.624H104.202L105.066 27.752ZM131 40.904L128.6 45.896C126.104 44.424 123.256 43.688 120.056 43.688C118.136 43.688 116.952 43.944 116.504 44.456L117.176 60.2C117.688 61.288 118.776 62.28 120.44 63.176C121.72 61.512 122.584 59.432 123.032 56.936C123.096 56.68 123.256 55.048 123.512 52.04L127.736 57.416L121.88 65.768L116.984 65.864L107.288 57.416C106.776 54.984 106.52 52.2 106.52 49.064C106.52 44.584 106.968 39.88 107.864 34.952L118.616 26.504C119.384 26.248 120.024 26.28 120.536 26.6L128.312 31.688L131 40.904ZM124.088 41.48L119.192 30.44C118.744 29.864 118.456 29.576 118.328 29.576C118.072 29.576 117.816 29.8 117.56 30.248L116.408 41.192C119.992 41 122.552 41.096 124.088 41.48ZM132.096 21.992C135.36 19.752 139.072 16.968 143.232 13.64V22.28C146.56 19.4 148.736 17.96 149.76 17.96C150.08 17.96 150.304 18.056 150.432 18.248L154.944 26.12C155.456 26.696 155.712 27.272 155.712 27.848C155.712 28.488 155.392 28.904 154.752 29.096L145.92 34.28V33.896C147.264 32.616 148.032 31.432 148.224 30.344C147.968 29.384 147.52 28.2 146.88 26.792C146.048 25 145.408 24.168 144.96 24.296C144.576 24.36 144.096 24.776 143.52 25.544C143.264 35.08 143.424 44.488 144 53.768C144.128 55.816 145.12 57.064 146.976 57.512C146.08 57.512 144.704 57.48 142.848 57.416C141.056 57.352 139.712 57.32 138.816 57.32C138.24 57.32 137.344 57.352 136.128 57.416C134.976 57.48 134.112 57.512 133.536 57.512C135.2 56.808 136.192 56.232 136.512 55.784C136.768 55.528 136.896 54.888 136.896 53.864L137.088 21.8L132.096 21.992ZM175.625 53.768L177.065 47.048L163.337 67.976L164.393 62.888L150.376 81.224L168.809 45.896L169.385 49.064L180.713 28.04L182.153 31.496L194.249 10.088L201.545 15.08L175.625 53.768ZM198.585 33.416H212.697C210.905 33.8 209.977 34.632 209.913 35.912L211.065 42.632C211.577 45.64 212.121 47.176 212.697 47.24C213.081 47.176 215.577 42.28 220.185 32.552C220.121 31.848 219.961 31.432 219.705 31.304L217.305 30.152L228.633 30.344C225.433 36.296 221.433 43.592 216.633 52.232C209.273 65.48 204.985 72.104 203.769 72.104C203.705 72.104 203.641 72.072 203.577 72.008C195.577 71.304 191.001 70.728 189.849 70.28C186.969 69.896 183.577 68.584 179.673 66.344C179.033 65.96 178.713 65.576 178.713 65.192C178.713 64.744 179.097 64.072 179.865 63.176C181.465 61.32 182.329 60.296 182.457 60.104C185.145 59.976 187.321 59.912 188.985 59.912C190.585 59.912 191.705 59.976 192.345 60.104C192.281 60.552 192.057 60.84 191.673 60.968C190.905 61.352 188.889 61.928 185.625 62.696L183.897 64.904C186.137 66.056 191.897 66.6 201.177 66.536L205.977 58.088C206.425 56.936 206.649 55.752 206.649 54.536C206.649 51.464 204.793 45 201.081 35.144C200.569 34.568 199.737 33.992 198.585 33.416Z" fill="black"/>
</svg>
