<svg width="49" height="46" viewBox="0 0 49 46" fill="none" xmlns="http://www.w3.org/2000/svg">
<path d="M0 1.64286C0 1.20714 0.172084 0.789278 0.478397 0.481182C0.784709 0.173087 1.20016 0 1.63335 0H6.53339C6.89773 0.000101238 7.25158 0.122724 7.53866 0.348367C7.82574 0.57401 8.02957 0.889719 8.11774 1.24529L9.44075 6.57143H47.3671C47.6152 6.5715 47.86 6.62842 48.083 6.73786C48.306 6.8473 48.5012 7.0064 48.6539 7.20307C48.8066 7.39975 48.9128 7.62883 48.9643 7.87293C49.0159 8.11703 49.0115 8.36973 48.9515 8.61186L44.0514 28.3261C43.9632 28.6817 43.7594 28.9974 43.4723 29.2231C43.1852 29.4487 42.8314 29.5713 42.4671 29.5714H13.0668C12.7024 29.5713 12.3486 29.4487 12.0615 29.2231C11.7744 28.9974 11.5706 28.6817 11.4824 28.3261L5.25938 3.28571H1.63335C1.20016 3.28571 0.784709 3.11263 0.478397 2.80453C0.172084 2.49644 0 2.07857 0 1.64286ZM10.2574 9.85714L11.8908 16.4286H16.3335V9.85714H10.2574ZM19.6002 9.85714V16.4286H26.1336V9.85714H19.6002ZM29.4003 9.85714V16.4286H35.9337V9.85714H29.4003ZM39.2004 9.85714V16.4286H43.6431L45.2764 9.85714H39.2004ZM42.8264 19.7143H39.2004V26.2857H41.193L42.8264 19.7143ZM35.9337 19.7143H29.4003V26.2857H35.9337V19.7143ZM26.1336 19.7143H19.6002V26.2857H26.1336V19.7143ZM16.3335 19.7143H12.7075L14.3408 26.2857H16.3335V19.7143ZM16.3335 36.1429C15.4671 36.1429 14.6362 36.489 14.0236 37.1052C13.411 37.7214 13.0668 38.5571 13.0668 39.4286C13.0668 40.3 13.411 41.1357 14.0236 41.7519C14.6362 42.3681 15.4671 42.7143 16.3335 42.7143C17.1999 42.7143 18.0308 42.3681 18.6434 41.7519C19.256 41.1357 19.6002 40.3 19.6002 39.4286C19.6002 38.5571 19.256 37.7214 18.6434 37.1052C18.0308 36.489 17.1999 36.1429 16.3335 36.1429ZM9.80009 39.4286C9.80009 37.6857 10.4884 36.0143 11.7137 34.7819C12.9389 33.5495 14.6007 32.8571 16.3335 32.8571C18.0662 32.8571 19.728 33.5495 20.9533 34.7819C22.1785 36.0143 22.8669 37.6857 22.8669 39.4286C22.8669 41.1714 22.1785 42.8429 20.9533 44.0753C19.728 45.3077 18.0662 46 16.3335 46C14.6007 46 12.9389 45.3077 11.7137 44.0753C10.4884 42.8429 9.80009 41.1714 9.80009 39.4286ZM39.2004 36.1429C38.334 36.1429 37.5031 36.489 36.8905 37.1052C36.2778 37.7214 35.9337 38.5571 35.9337 39.4286C35.9337 40.3 36.2778 41.1357 36.8905 41.7519C37.5031 42.3681 38.334 42.7143 39.2004 42.7143C40.0667 42.7143 40.8976 42.3681 41.5103 41.7519C42.1229 41.1357 42.4671 40.3 42.4671 39.4286C42.4671 38.5571 42.1229 37.7214 41.5103 37.1052C40.8976 36.489 40.0667 36.1429 39.2004 36.1429ZM32.667 39.4286C32.667 37.6857 33.3553 36.0143 34.5806 34.7819C35.8058 33.5495 37.4676 32.8571 39.2004 32.8571C40.9331 32.8571 42.5949 33.5495 43.8202 34.7819C45.0454 36.0143 45.7338 37.6857 45.7338 39.4286C45.7338 41.1714 45.0454 42.8429 43.8202 44.0753C42.5949 45.3077 40.9331 46 39.2004 46C37.4676 46 35.8058 45.3077 34.5806 44.0753C33.3553 42.8429 32.667 41.1714 32.667 39.4286Z" fill="white"/>
</svg>
