<svg width="85" height="85" viewBox="0 0 85 85" fill="none" xmlns="http://www.w3.org/2000/svg">
<path d="M42.5 0C30.9666 0 29.5163 0.053125 24.9847 0.255C20.4531 0.4675 17.3666 1.17937 14.6625 2.23125C11.8248 3.29548 9.25512 4.9693 7.13469 7.13469C4.9693 9.25512 3.29548 11.8248 2.23125 14.6625C1.17937 17.3613 0.462188 20.4531 0.255 24.9687C0.053125 29.5109 0 30.9559 0 42.5053C0 54.0441 0.053125 55.4891 0.255 60.0206C0.4675 64.5469 1.17937 67.6334 2.23125 70.3375C3.32031 73.1319 4.77063 75.5012 7.13469 77.8653C9.49344 80.2294 11.8628 81.685 14.6572 82.7687C17.3666 83.8206 20.4478 84.5378 24.9741 84.745C29.5109 84.9469 30.9559 85 42.5 85C54.0441 85 55.4838 84.9469 60.0206 84.745C64.5416 84.5325 67.6388 83.8206 70.3428 82.7687C73.1786 81.7038 75.7464 80.03 77.8653 77.8653C80.2294 75.5012 81.6797 73.1319 82.7687 70.3375C83.8153 67.6334 84.5325 64.5469 84.745 60.0206C84.9469 55.4891 85 54.0441 85 42.5C85 30.9559 84.9469 29.5109 84.745 24.9741C84.5325 20.4531 83.8153 17.3613 82.7687 14.6625C81.7045 11.8248 80.0307 9.25512 77.8653 7.13469C75.7449 4.9693 73.1752 3.29548 70.3375 2.23125C67.6281 1.17937 64.5362 0.462188 60.0153 0.255C55.4784 0.053125 54.0388 0 42.4894 0H42.5ZM38.6909 7.66063H42.5053C53.8528 7.66063 55.1969 7.69781 59.6753 7.905C63.8191 8.09094 66.0716 8.78688 67.5697 9.36594C69.5512 10.1363 70.9697 11.0606 72.4572 12.5481C73.9447 14.0356 74.8638 15.4488 75.6341 17.4356C76.2184 18.9284 76.9091 21.1809 77.095 25.3247C77.3022 29.8031 77.3447 31.1472 77.3447 42.4894C77.3447 53.8316 77.3022 55.1809 77.095 59.6594C76.9091 63.8031 76.2131 66.0503 75.6341 67.5484C74.9479 69.3914 73.861 71.0589 72.4519 72.4306C70.9644 73.9181 69.5513 74.8372 67.5644 75.6075C66.0769 76.1919 63.8244 76.8825 59.6753 77.0738C55.1969 77.2756 53.8528 77.3234 42.5053 77.3234C31.1578 77.3234 29.8084 77.2756 25.33 77.0738C21.1863 76.8825 18.9391 76.1919 17.4409 75.6075C15.5966 74.9235 13.9272 73.8385 12.5534 72.4306C11.1418 71.0579 10.053 69.3884 9.36594 67.5431C8.78688 66.0503 8.09094 63.7978 7.905 59.6541C7.70313 55.1756 7.66063 53.8316 7.66063 42.4787C7.66063 31.1259 7.70313 29.7925 7.905 25.3141C8.09625 21.1703 8.78688 18.9178 9.37125 17.4197C10.1416 15.4381 11.0659 14.0197 12.5534 12.5322C14.0409 11.0447 15.4541 10.1256 17.4409 9.35531C18.9391 8.77094 21.1863 8.08031 25.33 7.88906C29.2506 7.70844 30.77 7.65531 38.6909 7.65V7.66063ZM65.1897 14.7156C64.5199 14.7156 63.8568 14.8475 63.238 15.1038C62.6192 15.3601 62.057 15.7358 61.5834 16.2094C61.1099 16.683 60.7342 17.2452 60.4779 17.8639C60.2216 18.4827 60.0897 19.1459 60.0897 19.8156C60.0897 20.4854 60.2216 21.1485 60.4779 21.7673C60.7342 22.3861 61.1099 22.9483 61.5834 23.4219C62.057 23.8954 62.6192 24.2711 63.238 24.5274C63.8568 24.7837 64.5199 24.9156 65.1897 24.9156C66.5423 24.9156 67.8395 24.3783 68.7959 23.4219C69.7524 22.4654 70.2897 21.1682 70.2897 19.8156C70.2897 18.463 69.7524 17.1658 68.7959 16.2094C67.8395 15.2529 66.5423 14.7156 65.1897 14.7156ZM42.5053 20.6762C39.6104 20.6311 36.7354 21.1623 34.0477 22.2389C31.36 23.3155 28.9134 24.916 26.8502 26.9472C24.787 28.9785 23.1485 31.3999 22.0301 34.0704C20.9117 36.741 20.3357 39.6074 20.3357 42.5027C20.3357 45.3979 20.9117 48.2643 22.0301 50.9349C23.1485 53.6054 24.787 56.0268 26.8502 58.0581C28.9134 60.0893 31.36 61.6898 34.0477 62.7664C36.7354 63.843 39.6104 64.3742 42.5053 64.3291C48.2351 64.2397 53.6999 61.9008 57.7202 57.8173C61.7405 53.7337 63.9938 48.2331 63.9938 42.5027C63.9938 36.7722 61.7405 31.2716 57.7202 27.188C53.6999 23.1045 48.2351 20.7656 42.5053 20.6762ZM42.5053 28.3316C44.3659 28.3316 46.2083 28.698 47.9273 29.4101C49.6463 30.1221 51.2083 31.1657 52.5239 32.4814C53.8396 33.7971 54.8832 35.359 55.5952 37.078C56.3073 38.797 56.6738 40.6394 56.6738 42.5C56.6738 44.3606 56.3073 46.203 55.5952 47.922C54.8832 49.641 53.8396 51.2029 52.5239 52.5186C51.2083 53.8343 49.6463 54.8779 47.9273 55.5899C46.2083 56.302 44.3659 56.6684 42.5053 56.6684C38.7476 56.6684 35.1438 55.1757 32.4867 52.5186C29.8296 49.8615 28.3369 46.2577 28.3369 42.5C28.3369 38.7423 29.8296 35.1385 32.4867 32.4814C35.1438 29.8243 38.7476 28.3316 42.5053 28.3316Z" fill="white"/>
</svg>
