<svg width="87" height="87" viewBox="0 0 87 87" fill="none" xmlns="http://www.w3.org/2000/svg">
<path d="M0 6.23138C0 2.78944 2.86012 0 6.38906 0H80.6109C84.1399 0 87 2.78944 87 6.23138V80.7686C87 84.2106 84.1399 87 80.6109 87H6.38906C2.86012 87 0 84.2106 0 80.7686V6.23138ZM26.8776 72.8299V33.5439H13.8221V72.8299H26.8776ZM20.3526 28.1771C24.9038 28.1771 27.7367 25.1648 27.7367 21.3911C27.6551 17.5359 24.9092 14.6051 20.4396 14.6051C15.9699 14.6051 13.05 17.5414 13.05 21.3911C13.05 25.1648 15.8829 28.1771 20.2656 28.1771H20.3526ZM47.0398 72.8299V50.8896C47.0398 49.7151 47.1268 48.5406 47.4748 47.7032C48.4155 45.3596 50.5633 42.9291 54.1738 42.9291C58.899 42.9291 60.7858 46.5287 60.7858 51.8139V72.8299H73.8412V50.2969C73.8412 38.2256 67.4033 32.6141 58.812 32.6141C51.8846 32.6141 48.7798 36.4204 47.0398 39.1011V39.237H46.9528L47.0398 39.1011V33.5439H33.9898C34.1529 37.2306 33.9898 72.8299 33.9898 72.8299H47.0398Z" fill="white"/>
</svg>
