<svg width="85" height="85" viewBox="0 0 85 85" fill="none" xmlns="http://www.w3.org/2000/svg">
<path d="M72.2553 12.3572C68.3592 8.42324 63.7186 5.30454 58.6045 3.18298C53.4903 1.06142 48.0049 -0.0205106 42.4681 0.000294446C19.2684 0.000294446 0.36125 18.9022 0.34 42.1072C0.34 49.5394 2.28438 56.7697 5.95531 63.1712L0 85.0003L22.3337 79.1459C28.5095 82.5153 35.4331 84.2782 42.4681 84.2725H42.4894C65.6944 84.2725 84.5963 65.3706 84.6175 42.1444C84.6222 36.609 83.5319 31.1275 81.4094 26.0153C79.2868 20.9031 76.1793 16.2613 72.2553 12.3572ZM42.4681 77.1431C36.195 77.1382 30.0381 75.4503 24.6394 72.2556L23.3644 71.4906L10.115 74.965L13.6531 62.0397L12.8244 60.7062C9.3171 55.1298 7.46219 48.6736 7.47469 42.0859C7.47469 22.8228 23.1838 7.10842 42.4894 7.10842C47.0886 7.10017 51.644 8.00238 55.8929 9.76303C60.1418 11.5237 64.0002 14.108 67.2456 17.3669C70.5016 20.6136 73.083 24.4726 74.8409 28.7214C76.5988 32.9703 77.4985 37.525 77.4881 42.1231C77.4669 61.4553 61.7578 77.1431 42.4681 77.1431ZM61.6728 50.9312C60.6263 50.4053 55.4572 47.8606 54.485 47.4994C53.5181 47.154 52.8116 46.9734 52.1209 48.0253C51.4144 49.0719 49.3956 51.4572 48.79 52.1425C48.1844 52.849 47.5575 52.9287 46.5056 52.4081C45.4591 51.8769 42.0644 50.7719 38.0481 47.1753C34.9138 44.3862 32.8153 40.9331 32.1884 39.8865C31.5828 38.8347 32.13 38.2715 32.6559 37.7456C33.1181 37.2781 33.7025 36.5131 34.2284 35.9075C34.7597 35.3019 34.935 34.8556 35.2803 34.1544C35.6256 33.4425 35.4609 32.8369 35.2006 32.3109C34.935 31.785 32.8366 26.5947 31.9494 24.5015C31.0994 22.435 30.2334 22.7219 29.5853 22.6953C28.9797 22.6581 28.2731 22.6581 27.5666 22.6581C27.0331 22.6717 26.5081 22.7952 26.0245 23.021C25.5409 23.2468 25.1092 23.57 24.7562 23.9703C23.7894 25.0222 21.0853 27.5669 21.0853 32.7572C21.0853 37.9475 24.8572 42.9359 25.3884 43.6425C25.9091 44.349 32.7941 54.9687 43.3606 59.5375C45.8575 60.6265 47.8231 61.2694 49.3584 61.7581C51.8819 62.5656 54.1609 62.4434 55.9778 62.1831C57.9966 61.875 62.1988 59.6331 63.0859 57.1734C63.9572 54.7084 63.9572 52.6047 63.6916 52.1637C63.4313 51.7175 62.7247 51.4572 61.6728 50.9312Z" fill="white"/>
</svg>
